<svg width="697" height="897" viewBox="0 0 697 897" fill="none" xmlns="http://www.w3.org/2000/svg">
<path d="M386.451 568.67L229.506 511.641L145.038 742.371L241.978 720.063L301.984 799.4L386.451 568.67Z" fill="#1592EC"/>
<mask id="mask0" mask-type="alpha" maskUnits="userSpaceOnUse" x="145" y="508" width="454" height="295">
<path d="M386.451 568.67L229.506 511.641L145.038 742.371L241.978 720.063L301.984 799.4L386.451 568.67Z" fill="#24ADF1"/>
<path d="M341.528 580.327L492.46 508.885L598.113 730.714L499.513 717.56L447.182 802.156L341.528 580.327Z" fill="#24ADF1"/>
</mask>
<g mask="url(#mask0)">
<g style="mix-blend-mode:color">
<rect x="348.136" y="592.687" width="67.0449" height="151.559" transform="rotate(-9.74835 348.136 592.687)" fill="#005A9A"/>
</g>
</g>
<path d="M341.528 580.327L492.46 508.885L598.113 730.714L499.513 717.56L447.182 802.156L341.528 580.327Z" fill="#24ADF1"/>
<mask id="mask1" mask-type="alpha" maskUnits="userSpaceOnUse" x="145" y="508" width="454" height="295">
<path d="M386.451 568.67L229.506 511.641L145.038 742.371L241.978 720.063L301.984 799.4L386.451 568.67Z" fill="#24ADF1"/>
<path d="M341.528 580.327L492.46 508.885L598.113 730.714L499.513 717.56L447.182 802.156L341.528 580.327Z" fill="#24ADF1"/>
</mask>
<g mask="url(#mask1)">
<g style="mix-blend-mode:color" opacity="0.25">
<circle cx="357.766" cy="364.707" r="244.739" fill="#DC431A"/>
</g>
</g>
<circle cx="360.253" cy="343.619" r="251.619" fill="#DC431A"/>
<circle cx="356.496" cy="339.862" r="247.862" fill="#EA6C3A"/>
<path d="M609.086 341.24C609.086 478.892 491.886 589.042 356.604 589.042C221.322 589.042 111.324 478.892 111.324 341.24C111.324 203.589 228.853 92 364.136 92C499.418 92 609.086 203.589 609.086 341.24Z" fill="#E96D3A"/>
<circle cx="356.496" cy="339.862" r="212.394" fill="#EA6C3A" stroke="#DC4F24" stroke-width="15"/>
<circle cx="357.766" cy="338.592" r="194.936" fill="#EA6C3A"/>
<circle cx="357.766" cy="338.592" r="192.436" stroke="white" stroke-opacity="0.32" stroke-width="5"/>
<g opacity="0.25">
<mask id="mask2" mask-type="alpha" maskUnits="userSpaceOnUse" x="162" y="143" width="391" height="391">
<circle cx="357.766" cy="338.592" r="194.936" fill="#FDD013"/>
<circle cx="357.766" cy="338.592" r="192.436" stroke="white" stroke-opacity="0.32" stroke-width="5"/>
</mask>
<g mask="url(#mask2)">
<rect opacity="0.5" x="171.934" y="628.729" width="642.354" height="111.643" transform="rotate(-46.3516 171.934 628.729)" fill="white"/>
<rect opacity="0.5" x="141.494" y="599.692" width="642.354" height="19.4162" transform="rotate(-46.3516 141.494 599.692)" fill="white"/>
<rect opacity="0.5" x="0.14502" y="465.359" width="642.354" height="77.665" transform="rotate(-46.3516 0.14502 465.359)" fill="white"/>
</g>
</g>
<path d="M286.373 420.087C292.609 427.901 309.782 447.515 346.599 449.381C387.443 451.451 415.992 428.675 417.698 395.022C419.024 368.848 399.98 352.022 384.466 345.18L384.524 344.03C398.061 338.66 416.034 325.441 417.331 299.842C419.022 266.476 391.323 244.022 356.807 242.272C328.332 240.829 309.151 255.141 299.968 265.633C297.838 267.832 297.088 271.255 299.574 273.399L313.271 287.647C315.743 290.079 319.209 289.966 321.339 287.767C326.535 281.975 336.435 274.402 351.967 275.189C366.924 275.948 380.176 287.577 379.36 303.685C378.587 318.929 365.621 330.095 341.173 328.856L324.49 328.01C321.039 327.836 318.923 329.747 318.719 333.774L317.772 352.47C317.597 355.921 319.781 358.339 322.945 358.499L339.628 359.345C366.377 360.7 379.888 372.92 378.926 391.904C378.153 407.148 364.339 417.983 346.218 417.064C328.098 416.146 318.151 407.568 310.506 399.106C308.321 396.688 305.733 396.557 303.027 398.727L287.039 412.623C285.212 414.549 284.764 417.699 286.373 420.087Z" fill="#C93714"/>
<path d="M403.91 453.499C432.385 448.433 441.929 439.011 446.416 412.094C452.512 438.847 462.328 448.335 489.824 456.657C461.854 460.075 452.866 470.8 447.318 498.061C440.665 470.626 431.963 460.088 403.91 453.499Z" fill="white"/>
<path d="M403.91 453.499C432.385 448.433 441.929 439.011 446.416 412.094C452.512 438.847 462.328 448.335 489.824 456.657C461.854 460.075 452.866 470.8 447.318 498.061C440.665 470.626 431.963 460.088 403.91 453.499Z" fill="white"/>
<path d="M179.831 191.734C208.306 186.668 217.85 177.246 222.337 150.33C228.433 177.082 238.249 186.57 265.745 194.892C237.775 198.31 228.787 209.035 223.239 236.296C216.586 208.861 207.885 198.323 179.831 191.734Z" fill="white"/>
<path d="M179.831 191.734C208.306 186.668 217.85 177.246 222.337 150.33C228.433 177.082 238.249 186.57 265.745 194.892C237.775 198.31 228.787 209.035 223.239 236.296C216.586 208.861 207.885 198.323 179.831 191.734Z" fill="white"/>
<path d="M469.821 498.061C484.665 495.42 489.64 490.508 491.98 476.476C495.158 490.423 500.275 495.369 514.609 499.707C500.028 501.489 495.342 507.08 492.45 521.292C488.982 506.99 484.445 501.496 469.821 498.061Z" fill="white"/>
<path d="M469.821 498.061C484.665 495.42 489.64 490.508 491.98 476.476C495.158 490.423 500.275 495.369 514.609 499.707C500.028 501.489 495.342 507.08 492.45 521.292C488.982 506.99 484.445 501.496 469.821 498.061Z" fill="white"/>
<path d="M243.116 150.33C257.96 147.689 262.935 142.777 265.275 128.745C268.452 142.691 273.57 147.638 287.904 151.976C273.323 153.758 268.637 159.349 265.745 173.561C262.277 159.258 257.74 153.764 243.116 150.33Z" fill="white"/>
<path d="M243.116 150.33C257.96 147.689 262.935 142.777 265.275 128.745C268.452 142.691 273.57 147.638 287.904 151.976C273.323 153.758 268.637 159.349 265.745 173.561C262.277 159.258 257.74 153.764 243.116 150.33Z" fill="white"/>
<ellipse cx="376.624" cy="881.982" rx="253.073" ry="14.9859" fill="#E0E0E0"/>
</svg>
